HIERARCHY
ROOT mixamorig:Hips
{
	OFFSET 0.571580 -3.265655 94.795082
	CHANNELS 6 Xposition Yposition Zposition Xrotation Yrotation Zrotation
	JOINT mixamorig:Spine
	{
		OFFSET 0.061281 -0.185594 10.180519
		CHANNELS 6 Xposition Yposition Zposition Xrotation Yrotation Zrotation
		JOINT mixamorig:Spine1
		{
			OFFSET -0.153446 -0.699182 9.977051
			CHANNELS 3 Xrotation Yrotation Zrotation
			JOINT mixamorig:Spine2
			{
				OFFSET -0.374491 -0.899731 9.271011
				CHANNELS 6 Xposition Yposition Zposition Xrotation Yrotation Zrotation
				JOINT mixamorig:Neck
				{
					OFFSET -1.337907 -2.429218 16.635742
					CHANNELS 6 Xposition Yposition Zposition Xrotation Yrotation Zrotation
					JOINT mixamorig:Head
					{
						OFFSET -1.941193 -5.230617 8.013443
						CHANNELS 6 Xposition Yposition Zposition Xrotation Yrotation Zrotation
						JOINT mixamorig:HeadTop_End
						{
							OFFSET -2.439337 -20.028807 11.610748
							CHANNELS 6 Xposition Yposition Zposition Xrotation Yrotation Zrotation
							JOINT mixamorig:HeadTop_End_end
							{
								OFFSET 1.575346 -13.672771 18.774628
								CHANNELS 3 Xrotation Yrotation Zrotation
								End Site
								{
									OFFSET 1.575346 -13.672775 18.774628
								}
							}
						}
					}
				}
				JOINT mixamorig:RightShoulder
				{
					OFFSET -4.181158 1.650342 11.255051
					CHANNELS 6 Xposition Yposition Zposition Xrotation Yrotation Zrotation
					JOINT mixamorig:RightArm
					{
						OFFSET -9.417368 5.254324 1.082520
						CHANNELS 3 Xrotation Yrotation Zrotation
						JOINT mixamorig:RightForeArm
						{
							OFFSET -10.964229 -2.113905 -25.504234
							CHANNELS 3 Xrotation Yrotation Zrotation
							JOINT mixamorig:RightHand
							{
								OFFSET 9.371755 -24.304811 11.134102
								CHANNELS 3 Xrotation Yrotation Zrotation
								JOINT mixamorig:RightHandThumb1
								{
									OFFSET 1.496964 -0.242775 3.666817
									CHANNELS 6 Xposition Yposition Zposition Xrotation Yrotation Zrotation
									JOINT mixamorig:RightHandThumb2
									{
										OFFSET 2.549553 -2.830681 1.742050
										CHANNELS 3 Xrotation Yrotation Zrotation
										JOINT mixamorig:RightHandThumb3
										{
											OFFSET 0.948030 -3.100893 1.075569
											CHANNELS 3 Xrotation Yrotation Zrotation
											JOINT mixamorig:RightHandThumb4
											{
												OFFSET -1.276028 -1.664776 -1.493660
												CHANNELS 3 Xrotation Yrotation Zrotation
												JOINT mixamorig:RightHandThumb4_end
												{
													OFFSET -1.121566 -1.843914 -1.404518
													CHANNELS 3 Xrotation Yrotation Zrotation
													End Site
													{
														OFFSET -1.121561 -1.843922 -1.404510
													}
												}
											}
										}
									}
								}
								JOINT mixamorig:RightHandIndex1
								{
									OFFSET -0.215992 -5.338520 7.732376
									CHANNELS 6 Xposition Yposition Zposition Xrotation Yrotation Zrotation
									JOINT mixamorig:RightHandIndex2
									{
										OFFSET 3.614896 -0.126127 -0.778839
										CHANNELS 3 Xrotation Yrotation Zrotation
										JOINT mixamorig:RightHandIndex3
										{
											OFFSET -1.393514 2.044405 -1.414604
											CHANNELS 3 Xrotation Yrotation Zrotation
											JOINT mixamorig:RightHandIndex4
											{
												OFFSET -1.630378 -1.487137 1.677940
												CHANNELS 3 Xrotation Yrotation Zrotation
												JOINT mixamorig:RightHandIndex4_end
												{
													OFFSET -1.630405 -1.487474 1.677582
													CHANNELS 3 Xrotation Yrotation Zrotation
													End Site
													{
														OFFSET -1.630409 -1.487473 1.677582
													}
												}
											}
										}
									}
								}
								JOINT mixamorig:RightHandMiddle1
								{
									OFFSET -0.914182 -7.084770 6.311813
									CHANNELS 6 Xposition Yposition Zposition Xrotation Yrotation Zrotation
									JOINT mixamorig:RightHandMiddle2
									{
										OFFSET 3.609035 -0.084759 -0.810974
										CHANNELS 3 Xrotation Yrotation Zrotation
										JOINT mixamorig:RightHandMiddle3
										{
											OFFSET -1.492885 2.099112 -1.437851
											CHANNELS 3 Xrotation Yrotation Zrotation
											JOINT mixamorig:RightHandMiddle4
											{
												OFFSET -1.679048 -1.618130 1.801361
												CHANNELS 3 Xrotation Yrotation Zrotation
												JOINT mixamorig:RightHandMiddle4_end
												{
													OFFSET -1.679124 -1.618824 1.800674
													CHANNELS 3 Xrotation Yrotation Zrotation
													End Site
													{
														OFFSET -1.679125 -1.618820 1.800674
													}
												}
											}
										}
									}
								}
								JOINT mixamorig:RightHandRing1
								{
									OFFSET -0.948297 -8.000570 4.631157
									CHANNELS 6 Xposition Yposition Zposition Xrotation Yrotation Zrotation
									JOINT mixamorig:RightHandRing2
									{
										OFFSET 3.342806 -0.303284 -0.391602
										CHANNELS 3 Xrotation Yrotation Zrotation
										JOINT mixamorig:RightHandRing3
										{
											OFFSET -0.820926 2.179104 -1.711143
											CHANNELS 3 Xrotation Yrotation Zrotation
											JOINT mixamorig:RightHandRing4
											{
												OFFSET -2.203262 -0.861185 1.169296
												CHANNELS 3 Xrotation Yrotation Zrotation
												JOINT mixamorig:RightHandRing4_end
												{
													OFFSET -2.202922 -0.858137 1.172195
													CHANNELS 3 Xrotation Yrotation Zrotation
													End Site
													{
														OFFSET -2.202911 -0.858143 1.172195
													}
												}
											}
										}
									}
								}
								JOINT mixamorig:RightHandPinky1
								{
									OFFSET -0.532018 -8.567652 2.504028
									CHANNELS 6 Xposition Yposition Zposition Xrotation Yrotation Zrotation
									JOINT mixamorig:RightHandPinky2
									{
										OFFSET 3.541368 0.450871 -0.464203
										CHANNELS 3 Xrotation Yrotation Zrotation
										JOINT mixamorig:RightHandPinky3
										{
											OFFSET -0.660721 1.558990 -1.242203
											CHANNELS 3 Xrotation Yrotation Zrotation
											JOINT mixamorig:RightHandPinky4
											{
												OFFSET -1.894598 -0.705582 0.623878
												CHANNELS 3 Xrotation Yrotation Zrotation
												JOINT mixamorig:RightHandPinky4_end
												{
													OFFSET -1.894614 -0.705456 0.624008
													CHANNELS 3 Xrotation Yrotation Zrotation
													End Site
													{
														OFFSET -1.894611 -0.705460 0.624008
													}
												}
											}
										}
									}
								}
							}
						}
					}
				}
				JOINT mixamorig:LeftShoulder
				{
					OFFSET 3.318475 -3.572391 11.095352
					CHANNELS 6 Xposition Yposition Zposition Xrotation Yrotation Zrotation
					JOINT mixamorig:LeftArm
					{
						OFFSET 9.771980 -4.618059 -0.798630
						CHANNELS 3 Xrotation Yrotation Zrotation
						JOINT mixamorig:LeftForeArm
						{
							OFFSET 7.257785 -13.292032 -23.362259
							CHANNELS 3 Xrotation Yrotation Zrotation
							JOINT mixamorig:LeftHand
							{
								OFFSET -19.909367 -8.510340 18.267807
								CHANNELS 6 Xposition Yposition Zposition Xrotation Yrotation Zrotation
								JOINT mixamorig:LeftHandThumb1
								{
									OFFSET -1.834057 2.108456 2.819260
									CHANNELS 6 Xposition Yposition Zposition Xrotation Yrotation Zrotation
									JOINT mixamorig:LeftHandThumb2
									{
										OFFSET -2.913577 0.560822 2.954376
										CHANNELS 3 Xrotation Yrotation Zrotation
										JOINT mixamorig:LeftHandThumb3
										{
											OFFSET -2.615861 -0.486206 2.146225
											CHANNELS 6 Xposition Yposition Zposition Xrotation Yrotation Zrotation
											JOINT mixamorig:LeftHandThumb4
											{
												OFFSET -2.339317 -0.854954 0.675400
												CHANNELS 3 Xrotation Yrotation Zrotation
												JOINT mixamorig:LeftHandThumb4_end
												{
													OFFSET -2.367481 -0.667557 0.780319
													CHANNELS 3 Xrotation Yrotation Zrotation
													End Site
													{
														OFFSET -2.367477 -0.667553 0.780334
													}
												}
											}
										}
									}
								}
								JOINT mixamorig:LeftHandIndex1
								{
									OFFSET -3.861249 -0.845917 8.528198
									CHANNELS 6 Xposition Yposition Zposition Xrotation Yrotation Zrotation
									JOINT mixamorig:LeftHandIndex2
									{
										OFFSET -3.587525 0.059029 0.903427
										CHANNELS 3 Xrotation Yrotation Zrotation
										JOINT mixamorig:LeftHandIndex3
										{
											OFFSET -0.961716 1.221874 -2.388443
											CHANNELS 3 Xrotation Yrotation Zrotation
											JOINT mixamorig:LeftHandIndex4
											{
												OFFSET 1.774214 0.691387 -2.018478
												CHANNELS 3 Xrotation Yrotation Zrotation
												JOINT mixamorig:LeftHandIndex4_end
												{
													OFFSET 1.774212 0.691303 -2.018509
													CHANNELS 3 Xrotation Yrotation Zrotation
													End Site
													{
														OFFSET 1.774209 0.691311 -2.018509
													}
												}
											}
										}
									}
								}
								JOINT mixamorig:LeftHandMiddle1
								{
									OFFSET -4.100232 -3.134060 8.015717
									CHANNELS 6 Xposition Yposition Zposition Xrotation Yrotation Zrotation
									JOINT mixamorig:LeftHandMiddle2
									{
										OFFSET -3.492460 -0.095783 1.218018
										CHANNELS 3 Xrotation Yrotation Zrotation
										JOINT mixamorig:LeftHandMiddle3
										{
											OFFSET -1.550400 1.212349 -2.197495
											CHANNELS 3 Xrotation Yrotation Zrotation
											JOINT mixamorig:LeftHandMiddle4
											{
												OFFSET 1.041238 1.036095 -2.561630
												CHANNELS 3 Xrotation Yrotation Zrotation
												JOINT mixamorig:LeftHandMiddle4_end
												{
													OFFSET 1.041233 1.036251 -2.561569
													CHANNELS 3 Xrotation Yrotation Zrotation
													End Site
													{
														OFFSET 1.041235 1.036251 -2.561569
													}
												}
											}
										}
									}
								}
								JOINT mixamorig:LeftHandRing1
								{
									OFFSET -4.373774 -4.585636 6.798141
									CHANNELS 6 Xposition Yposition Zposition Xrotation Yrotation Zrotation
									JOINT mixamorig:LeftHandRing2
									{
										OFFSET -3.033766 0.018379 0.847565
										CHANNELS 3 Xrotation Yrotation Zrotation
										JOINT mixamorig:LeftHandRing3
										{
											OFFSET -1.194180 1.253658 -2.388458
											CHANNELS 3 Xrotation Yrotation Zrotation
											JOINT mixamorig:LeftHandRing4
											{
												OFFSET 1.374266 0.785732 -2.118118
												CHANNELS 3 Xrotation Yrotation Zrotation
												JOINT mixamorig:LeftHandRing4_end
												{
													OFFSET 1.374264 0.785812 -2.118073
													CHANNELS 3 Xrotation Yrotation Zrotation
													End Site
													{
														OFFSET 1.374268 0.785812 -2.118073
													}
												}
											}
										}
									}
								}
								JOINT mixamorig:LeftHandPinky1
								{
									OFFSET -4.757825 -5.752323 4.924423
									CHANNELS 6 Xposition Yposition Zposition Xrotation Yrotation Zrotation
									JOINT mixamorig:LeftHandPinky2
									{
										OFFSET -3.457662 -0.147011 0.991470
										CHANNELS 3 Xrotation Yrotation Zrotation
										JOINT mixamorig:LeftHandPinky3
										{
											OFFSET -1.007335 0.890823 -1.612976
											CHANNELS 3 Xrotation Yrotation Zrotation
											JOINT mixamorig:LeftHandPinky4
											{
												OFFSET 0.810720 0.687283 -1.840683
												CHANNELS 3 Xrotation Yrotation Zrotation
												JOINT mixamorig:LeftHandPinky4_end
												{
													OFFSET 0.810662 0.686115 -1.841156
													CHANNELS 3 Xrotation Yrotation Zrotation
													End Site
													{
														OFFSET 0.810665 0.686111 -1.841156
													}
												}
											}
										}
									}
								}
							}
						}
					}
				}
			}
		}
	}
	JOINT mixamorig:RightUpLeg
	{
		OFFSET -5.262214 6.632543 -6.620453
		CHANNELS 6 Xposition Yposition Zposition Xrotation Yrotation Zrotation
		JOINT mixamorig:RightLeg
		{
			OFFSET -13.892944 2.484846 -42.067097
			CHANNELS 3 Xrotation Yrotation Zrotation
			JOINT mixamorig:RightFoot
			{
				OFFSET 13.096161 20.349625 -37.377926
				CHANNELS 3 Xrotation Yrotation Zrotation
				JOINT mixamorig:RightToeBase
				{
					OFFSET -8.938315 -5.901133 -8.728691
					CHANNELS 6 Xposition Yposition Zposition Xrotation Yrotation Zrotation
					JOINT mixamorig:RightToe_End
					{
						OFFSET -7.742551 -5.111675 0.082933
						CHANNELS 3 Xrotation Yrotation Zrotation
						JOINT mixamorig:RightToe_End_end
						{
							OFFSET -7.742550 -5.111676 0.082933
							CHANNELS 3 Xrotation Yrotation Zrotation
							End Site
							{
								OFFSET -7.742552 -5.111676 0.082933
							}
						}
					}
				}
			}
		}
	}
	JOINT mixamorig:LeftUpLeg
	{
		OFFSET 7.158144 -4.097486 -6.890831
		CHANNELS 6 Xposition Yposition Zposition Xrotation Yrotation Zrotation
		JOINT mixamorig:LeftLeg
		{
			OFFSET 0.830040 -22.887587 -38.003807
			CHANNELS 3 Xrotation Yrotation Zrotation
			JOINT mixamorig:LeftFoot
			{
				OFFSET 16.070894 5.809891 -41.118088
				CHANNELS 3 Xrotation Yrotation Zrotation
				JOINT mixamorig:LeftToeBase
				{
					OFFSET -4.605972 -9.627884 -8.774727
					CHANNELS 6 Xposition Yposition Zposition Xrotation Yrotation Zrotation
					JOINT mixamorig:LeftToe_End
					{
						OFFSET -4.008911 -8.356323 0.428456
						CHANNELS 3 Xrotation Yrotation Zrotation
						JOINT mixamorig:LeftToe_End_end
						{
							OFFSET -4.008916 -8.356323 0.428456
							CHANNELS 3 Xrotation Yrotation Zrotation
							End Site
							{
								OFFSET -4.008915 -8.356331 0.428456
							}
						}
					}
				}
			}
		}
	}
}
MOTION
Frames: 4
Frame Time: 0.033333
-1.145018 -1.219334 96.498207 0.150607 -1.910272 -1.240973 0.061281 -0.185595 10.180538 -1.751516 0.412079 -0.332507 0.750184 -0.378890 -0.011958 -0.374493 -0.899731 9.271008 0.751457 -0.378417 -0.011287 -1.337908 -2.429217 16.635769 0.976467 -0.992664 -0.545298 -1.941191 -5.230610 8.013412 1.068772 1.240435 1.105609 -2.439338 -20.028803 11.610728 -0.000002 -0.000001 -0.000003 0.000000 -0.000001 0.000003 -4.181157 1.650346 11.255048 0.010025 -0.324213 1.001209 -2.588201 -0.786506 -0.930553 0.000484 0.000095 -0.000229 1.965347 -2.339496 2.747505 1.496960 -0.242781 3.666795 0.000001 0.000009 0.000007 -0.000005 0.000004 0.000004 -0.000000 0.000009 -0.000005 0.000003 0.000000 -0.000003 -0.000002 0.000000 0.000003 -0.215999 -5.338528 7.732345 -0.000003 0.000004 0.000013 -0.000000 0.000006 0.000010 -0.000004 -0.000007 -0.000005 -0.000000 -0.000004 -0.000000 0.000003 -0.000001 0.000003 -0.914182 -7.084780 6.311798 0.000005 -0.000001 0.000001 0.000006 0.000000 0.000004 -0.000002 0.000004 0.000004 -0.000001 0.000003 0.000001 -0.000000 -0.000003 -0.000004 -0.948296 -8.000552 4.631155 0.000005 -0.000002 0.000002 0.000002 -0.000002 -0.000001 -0.000002 -0.000009 -0.000005 0.000006 -0.000002 0.000003 -0.000005 0.000003 0.000002 -0.532017 -8.567654 2.504028 -0.000001 0.000000 -0.000001 -0.000008 -0.000003 0.000001 -0.000002 0.000001 0.000006 0.000002 0.000002 0.000002 -0.000003 0.000000 0.000003 3.318477 -3.572389 11.095340 0.337155 0.291398 -0.341567 -0.505032 1.114342 0.639387 -0.191986 0.144905 -0.141768 -19.909363 -8.510351 18.267820 0.400321 -1.704537 2.514228 -1.834062 2.108458 2.819276 0.000004 -0.000008 0.000009 -0.000000 -0.000002 0.000003 -2.615875 -0.486227 2.146228 0.000007 0.000002 -0.000003 0.000002 -0.000000 -0.000002 -0.000001 -0.000000 0.000002 -3.861255 -0.845918 8.528191 -0.000006 -0.000021 -0.000011 -0.000002 0.000016 0.000007 -0.000000 0.000011 0.000004 -0.000000 -0.000001 -0.000001 -0.000003 0.000002 -0.000000 -4.100245 -3.134059 8.015697 0.000009 0.000011 0.000002 -0.000003 -0.000006 -0.000003 -0.000002 -0.000002 -0.000001 -0.000002 0.000003 -0.000002 -0.000001 0.000003 0.000001 -4.373791 -4.585635 6.798097 -0.000008 -0.000020 -0.000013 -0.000002 0.000011 0.000002 0.000004 0.000011 0.000004 0.000001 -0.000001 0.000002 0.000002 0.000007 0.000002 -4.757824 -5.752337 4.924462 0.000001 -0.000002 -0.000003 -0.000000 0.000003 -0.000001 0.000003 -0.000004 0.000000 0.000004 -0.000001 -0.000000 0.000004 0.000003 0.000001 -5.262208 6.632545 -6.620453 -1.581593 -0.627139 0.511061 -0.723009 3.426754 0.559581 2.124973 -0.924165 0.237861 -8.938313 -5.901130 -8.728691 -0.069670 0.105537 0.000032 0.000000 0.000000 -0.000001 0.000000 0.000000 -0.000002 7.158145 -4.097490 -6.890831 3.283961 1.143143 -0.188010 -4.352717 2.907846 0.740787 0.760260 -2.041492 -0.247750 -4.605970 -9.627879 -8.774723 0.137927 -0.066162 0.000279 -0.000000 -0.000000 0.000000 -0.000000 0.000000 0.000002 
-0.871070 -1.797770 95.995949 -0.308798 -1.594611 -0.631645 0.061280 -0.185594 10.180526 -1.517530 -0.381435 -0.705155 0.730558 -0.256804 -0.025131 -0.374491 -0.899727 9.271018 0.733497 -0.254316 -0.025186 -1.337909 -2.429220 16.635765 0.830575 -0.894025 -0.555520 -1.941188 -5.230600 8.013398 0.978149 1.419501 1.076633 -2.439330 -20.028797 11.610773 -0.000003 0.000001 -0.000003 0.000002 -0.000001 -0.000001 -4.181159 1.650342 11.255043 0.045627 0.217569 0.725706 -1.875583 -1.132291 -0.751654 0.213797 0.038677 -0.095204 1.323098 -2.314081 2.895533 1.496960 -0.242766 3.666811 0.000002 0.000005 0.000003 -0.000005 0.000005 0.000006 0.000004 0.000007 -0.000009 0.000001 -0.000001 -0.000003 0.000003 0.000002 0.000002 -0.216000 -5.338515 7.732361 -0.000003 0.000003 0.000012 0.000003 0.000007 0.000007 -0.000009 -0.000010 -0.000009 0.000005 -0.000005 0.000001 0.000006 0.000001 0.000004 -0.914182 -7.084768 6.311839 -0.000000 -0.000001 0.000000 0.000005 0.000003 0.000006 -0.000008 0.000000 0.000001 -0.000004 0.000001 0.000001 -0.000000 -0.000003 -0.000000 -0.948298 -8.000541 4.631168 0.000005 -0.000002 0.000002 0.000002 -0.000003 0.000000 -0.000005 -0.000012 -0.000005 0.000006 -0.000003 0.000004 0.000001 0.000001 0.000003 -0.532020 -8.567645 2.504034 -0.000003 0.000001 0.000000 -0.000012 -0.000004 0.000003 -0.000008 0.000002 0.000006 0.000005 0.000003 0.000003 -0.000003 0.000002 0.000001 3.318473 -3.572395 11.095350 0.717429 0.561987 -0.389848 1.028296 0.742844 0.362958 0.228676 -0.171699 0.169179 -19.909365 -8.510345 18.267859 -0.205021 -1.882049 2.550901 -1.834061 2.108458 2.819290 0.000006 -0.000001 0.000009 0.000003 -0.000000 0.000001 -2.615870 -0.486217 2.146228 0.000005 0.000001 -0.000001 0.000004 -0.000001 -0.000004 0.000002 -0.000001 0.000000 -3.861249 -0.845924 8.528166 -0.000008 -0.000020 -0.000010 -0.000001 0.000018 0.000005 0.000002 0.000010 0.000003 -0.000001 -0.000003 -0.000001 -0.000000 0.000003 0.000001 -4.100236 -3.134052 8.015712 0.000009 0.000015 0.000004 -0.000003 0.000001 0.000000 -0.000000 -0.000001 0.000001 -0.000003 0.000001 -0.000002 0.000001 0.000002 0.000000 -4.373786 -4.585635 6.798083 -0.000012 -0.000019 -0.000012 -0.000001 0.000011 0.000002 0.000003 0.000019 0.000007 0.000001 -0.000007 0.000000 -0.000003 0.000000 -0.000001 -4.757819 -5.752333 4.924450 -0.000001 -0.000000 -0.000002 0.000007 0.000001 -0.000001 0.000004 -0.000003 0.000001 0.000001 0.000001 -0.000000 0.000003 0.000000 -0.000000 -5.262211 6.632546 -6.620453 -0.911882 -0.319121 0.109338 -0.052349 2.395848 0.344641 1.257292 -0.491919 0.153306 -8.938315 -5.901135 -8.728691 0.064616 -0.097866 0.000030 0.000000 0.000000 -0.000002 0.000000 0.000000 0.000001 7.158146 -4.097487 -6.890819 1.679588 2.094209 -1.230455 -0.188499 1.079805 1.199330 2.247218 -3.129010 0.003514 -4.605970 -9.627882 -8.774719 -2.217920 1.059888 0.017710 -0.000000 -0.000000 0.000000 -0.000000 0.000000 0.000002 
-0.597121 -2.376206 95.493690 -0.771471 -1.283860 -0.019891 0.061280 -0.185595 10.180533 -1.288668 -1.176448 -1.074635 0.710961 -0.134715 -0.038259 -0.374491 -0.899731 9.271022 0.715569 -0.130214 -0.039044 -1.337907 -2.429217 16.635731 0.684758 -0.795278 -0.565477 -1.941190 -5.230602 8.013433 0.887614 1.598607 1.047943 -2.439325 -20.028786 11.610743 -0.000003 0.000002 -0.000002 -0.000001 -0.000000 0.000001 -4.181157 1.650350 11.255054 0.083799 0.759160 0.449848 -1.161781 -1.475844 -0.568449 0.427161 0.076908 -0.190316 0.680783 -2.291907 3.042503 1.496958 -0.242785 3.666805 0.000006 0.000009 0.000005 -0.000008 0.000005 0.000002 -0.000001 0.000008 -0.000007 0.000007 -0.000003 -0.000007 -0.000002 0.000003 0.000005 -0.215995 -5.338538 7.732346 0.000004 0.000006 0.000012 0.000001 0.000004 0.000006 -0.000005 -0.000010 -0.000009 0.000002 -0.000004 -0.000000 0.000006 0.000000 0.000000 -0.914176 -7.084785 6.311827 0.000005 0.000001 -0.000000 0.000006 0.000000 0.000005 -0.000003 0.000000 -0.000000 -0.000001 0.000002 -0.000001 -0.000000 -0.000001 -0.000003 -0.948298 -8.000560 4.631158 0.000007 -0.000003 0.000002 0.000001 -0.000001 0.000001 -0.000003 -0.000013 -0.000007 0.000008 -0.000004 0.000000 -0.000005 -0.000002 -0.000000 -0.532015 -8.567664 2.504015 0.000006 0.000002 0.000001 -0.000003 -0.000003 0.000001 0.000001 0.000001 0.000006 0.000005 0.000006 0.000004 -0.000006 0.000002 0.000001 3.318474 -3.572386 11.095331 1.096988 0.833939 -0.444482 2.559707 0.364074 0.096590 0.651061 -0.485994 0.482450 -19.909363 -8.510358 18.267818 -0.810315 -2.059944 2.585703 -1.834060 2.108461 2.819260 -0.000001 -0.000002 0.000012 0.000001 -0.000003 -0.000001 -2.615862 -0.486223 2.146230 0.000009 0.000006 -0.000002 0.000003 0.000000 -0.000002 0.000003 0.000003 -0.000000 -3.861251 -0.845913 8.528180 -0.000009 -0.000017 -0.000007 -0.000009 0.000018 0.000006 0.000003 0.000013 0.000004 -0.000001 -0.000005 -0.000001 -0.000000 -0.000002 0.000001 -4.100238 -3.134053 8.015697 0.000003 0.000014 0.000007 -0.000006 0.000001 -0.000001 -0.000000 0.000001 0.000001 -0.000002 0.000001 -0.000001 0.000003 0.000004 -0.000000 -4.373783 -4.585623 6.798080 -0.000010 -0.000019 -0.000010 0.000001 0.000013 0.000001 0.000005 0.000019 0.000006 0.000002 -0.000012 -0.000003 -0.000000 0.000000 -0.000000 -4.757820 -5.752322 4.924450 -0.000002 0.000001 -0.000000 0.000006 -0.000000 -0.000002 -0.000004 -0.000006 -0.000000 0.000003 -0.000001 0.000001 -0.000000 0.000004 0.000001 -5.262206 6.632544 -6.620446 -0.240036 -0.015817 -0.295957 0.614037 1.362503 0.141915 0.390262 -0.058426 0.075315 -8.938314 -5.901130 -8.728692 0.198900 -0.301258 0.000502 0.000000 0.000000 0.000001 0.000000 0.000000 0.000001 7.158144 -4.097482 -6.890829 0.091605 3.073936 -2.246623 3.989772 -0.710073 1.789351 3.740734 -4.209623 0.283295 -4.605969 -9.627882 -8.774721 -4.575434 2.184278 0.081452 -0.000000 -0.000000 -0.000002 -0.000000 0.000000 -0.000000 
-0.282619 -3.036233 94.820236 -1.433950 -1.175281 -0.650303 0.061280 -0.185595 10.180508 -0.615242 -1.924086 -1.392868 0.566085 0.018173 -0.063255 -0.374492 -0.899731 9.271020 0.571583 0.024091 -0.064892 -1.337910 -2.429215 16.635735 0.704842 -0.695559 -0.509196 -1.941189 -5.230602 8.013429 1.004003 1.871383 1.350335 -2.439327 -20.028801 11.610757 -0.000005 -0.000001 0.000000 -0.000003 -0.000003 0.000001 -4.181159 1.650344 11.255052 0.108212 1.123509 0.060057 -0.104359 -1.712627 0.181331 0.926089 0.164880 -0.413164 -0.166583 -2.379415 3.352869 1.496953 -0.242783 3.666803 0.000001 0.000005 0.000004 -0.000009 0.000003 0.000008 -0.000001 0.000007 -0.000007 0.000004 -0.000005 -0.000006 -0.000003 -0.000003 0.000003 -0.215996 -5.338533 7.732364 0.000000 0.000003 0.000012 -0.000001 0.000004 0.000006 -0.000004 -0.000005 -0.000009 0.000001 -0.000002 -0.000001 0.000002 0.000000 0.000002 -0.914186 -7.084784 6.311844 0.000003 -0.000002 -0.000000 0.000005 0.000000 0.000005 -0.000002 0.000003 0.000006 0.000003 -0.000003 -0.000006 0.000002 -0.000001 -0.000002 -0.948299 -8.000555 4.631150 0.000005 -0.000002 0.000002 0.000005 -0.000003 0.000001 -0.000006 -0.000011 -0.000003 0.000001 -0.000001 0.000002 -0.000009 0.000001 -0.000001 -0.532018 -8.567652 2.504040 0.000000 0.000000 -0.000001 -0.000008 -0.000003 0.000002 0.000001 0.000002 0.000006 0.000003 0.000001 0.000003 -0.000006 -0.000001 -0.000001 3.318475 -3.572386 11.095380 1.424925 1.212399 -0.351295 4.446374 -0.156982 0.102395 0.745481 -0.555759 0.552622 -19.909369 -8.510347 18.267820 -1.824609 -1.644120 1.975325 -1.834062 2.108469 2.819304 -0.000003 -0.000003 0.000014 0.000006 -0.000001 0.000003 -2.615878 -0.486224 2.146243 0.000009 -0.000002 -0.000003 0.000003 -0.000002 -0.000002 0.000004 0.000000 0.000002 -3.861251 -0.845916 8.528209 -0.000008 -0.000019 -0.000008 -0.000003 0.000019 0.000007 -0.000001 0.000013 0.000004 0.000001 -0.000010 -0.000002 0.000003 0.000004 0.000000 -4.100241 -3.134055 8.015726 0.000007 0.000012 0.000007 -0.000004 -0.000002 -0.000002 -0.000000 0.000001 0.000000 0.000002 -0.000000 -0.000002 -0.000001 0.000004 -0.000000 -4.373782 -4.585620 6.798098 -0.000006 -0.000017 -0.000008 -0.000003 0.000011 0.000002 0.000006 0.000018 0.000004 0.000000 -0.000005 -0.000001 -0.000001 0.000004 0.000000 -4.757819 -5.752318 4.924465 -0.000002 0.000000 0.000001 -0.000003 0.000001 -0.000001 -0.000002 -0.000004 -0.000000 0.000004 0.000003 0.000000 0.000004 0.000000 -0.000000 -5.262212 6.632544 -6.620456 0.205630 1.046463 -0.729905 1.664162 -0.359780 1.251857 -0.438753 0.569705 0.071393 -8.938313 -5.901133 -8.728691 0.166003 -0.251433 0.000347 0.000000 0.000000 0.000001 0.000000 0.000000 -0.000002 7.158145 -4.097490 -6.890833 -1.918878 3.387846 -2.446893 8.516959 -1.986175 2.492725 6.810282 -3.549973 -1.212874 -4.605973 -9.627884 -8.774721 -5.570768 1.140724 0.118200 -0.000000 0.000000 0.000002 0.000000 0.000000 -0.000000 
